<svg width="14" height="14" viewBox="0 0 14 14" fill="none" xmlns="http://www.w3.org/2000/svg">
<g clip-path="url(#clip0)">
<path fill-rule="evenodd" clip-rule="evenodd" d="M10.1114 6.4H2.67275L4.48497 4.564C4.78986 4.2536 4.79297 3.7448 4.4912 3.4304C4.18864 3.116 3.69709 3.112 3.39064 3.4224L0.231307 6.6216C-0.0743592 6.932 -0.0774703 7.4384 0.224307 7.7528L3.33542 11.0024C3.48786 11.1608 3.68853 11.24 3.8892 11.24C4.08675 11.24 4.28431 11.1632 4.43597 11.0096C4.74164 10.6984 4.74475 10.1976 4.44297 9.8832L2.64009 8H10.1114C10.5415 8 10.8892 7.6416 10.8892 7.2C10.8892 6.7584 10.5415 6.4 10.1114 6.4ZM6.22253 13.6C6.22253 14.0416 6.57097 14.4 7.00031 14.4H12.1329C13.1798 14.4 14.0003 13.5216 14.0003 12.4V2C14.0003 0.8784 13.1798 0 12.1329 0H7.00031C6.57097 0 6.22253 0.3584 6.22253 0.8C6.22253 1.2416 6.57097 1.6 7.00031 1.6H12.1329C12.4354 1.6 12.4448 1.9592 12.4448 2V12.4C12.4448 12.4408 12.4354 12.8 12.1329 12.8H7.00031C6.57097 12.8 6.22253 13.1584 6.22253 13.6Z" fill="#224357"/>
</g>
<defs>
<clipPath id="clip0">
<rect width="14" height="14" fill="white"/>
</clipPath>
</defs>
</svg>
