<svg width="18" height="18" viewBox="0 0 18 18" fill="none" xmlns="http://www.w3.org/2000/svg">
<path d="M14.4865 4.89429C14.2064 2.35797 12.1623 0.313837 9.62598 0.0337506C8.05589 -0.139638 6.48569 0.360594 5.31809 1.40634C4.14958 2.45286 3.47937 3.95229 3.47937 5.52V6.22315H4.88567V5.52C4.88567 4.35163 5.38527 3.23406 6.25633 2.45391C7.13923 1.66315 8.28099 1.3001 9.47161 1.43158C11.3591 1.64002 12.8803 3.16125 13.0887 5.0487C13.2564 6.56662 12.5845 8.04552 11.3354 8.90832C9.43294 10.2224 8.29716 12.3594 8.29716 14.6247V15.3279H9.70343V14.6247C9.70343 12.8213 10.6123 11.1169 12.1346 10.0654C13.8098 8.90831 14.711 6.9269 14.4865 4.89429Z" fill="black"/>
<path d="M9.70353 16.5937H8.29724V18H9.70353V16.5937Z" fill="black"/>
</svg>
