<svg width="125" height="56" viewBox="0 0 125 56" fill="none" xmlns="http://www.w3.org/2000/svg">
<rect x="1" y="1" width="123" height="54" rx="1" stroke="black" stroke-width="2"/>
<path d="M31.068 20.6H33.928V33.58H41.98V36H31.068V20.6ZM50.8226 36.22C49.2533 36.22 47.838 35.8827 46.5766 35.208C45.3153 34.5187 44.3253 33.5727 43.6066 32.37C42.888 31.1527 42.5286 29.796 42.5286 28.3C42.5286 26.804 42.888 25.4547 43.6066 24.252C44.3253 23.0347 45.3153 22.0887 46.5766 21.414C47.838 20.7247 49.2533 20.38 50.8226 20.38C52.392 20.38 53.8073 20.7247 55.0686 21.414C56.33 22.0887 57.32 23.0273 58.0386 24.23C58.7573 25.4327 59.1166 26.7893 59.1166 28.3C59.1166 29.8107 58.7573 31.1673 58.0386 32.37C57.32 33.5727 56.33 34.5187 55.0686 35.208C53.8073 35.8827 52.392 36.22 50.8226 36.22ZM50.8226 33.712C51.8493 33.712 52.7733 33.4847 53.5946 33.03C54.416 32.5607 55.0613 31.9153 55.5306 31.094C56 30.258 56.2346 29.3267 56.2346 28.3C56.2346 27.2733 56 26.3493 55.5306 25.528C55.0613 24.692 54.416 24.0467 53.5946 23.592C52.7733 23.1227 51.8493 22.888 50.8226 22.888C49.796 22.888 48.872 23.1227 48.0506 23.592C47.2293 24.0467 46.584 24.692 46.1146 25.528C45.6453 26.3493 45.4106 27.2733 45.4106 28.3C45.4106 29.3267 45.6453 30.258 46.1146 31.094C46.584 31.9153 47.2293 32.5607 48.0506 33.03C48.872 33.4847 49.796 33.712 50.8226 33.712ZM72.3342 28.124H75.0402V34.262C74.2482 34.8927 73.3242 35.3767 72.2682 35.714C71.2122 36.0513 70.1268 36.22 69.0122 36.22C67.4428 36.22 66.0275 35.8827 64.7662 35.208C63.5048 34.5187 62.5148 33.5727 61.7962 32.37C61.0775 31.1673 60.7182 29.8107 60.7182 28.3C60.7182 26.7893 61.0775 25.4327 61.7962 24.23C62.5148 23.0273 63.5048 22.0887 64.7662 21.414C66.0422 20.7247 67.4722 20.38 69.0562 20.38C70.3468 20.38 71.5202 20.5927 72.5762 21.018C73.6322 21.4433 74.5195 22.0667 75.2382 22.888L73.4342 24.648C72.2608 23.4747 70.8455 22.888 69.1882 22.888C68.1028 22.888 67.1348 23.1153 66.2842 23.57C65.4482 24.0247 64.7882 24.6627 64.3042 25.484C63.8348 26.3053 63.6002 27.244 63.6002 28.3C63.6002 29.3267 63.8348 30.2507 64.3042 31.072C64.7882 31.8933 65.4482 32.5387 66.2842 33.008C67.1348 33.4773 68.0955 33.712 69.1662 33.712C70.3688 33.712 71.4248 33.448 72.3342 32.92V28.124ZM85.6763 36.22C84.107 36.22 82.6916 35.8827 81.4303 35.208C80.169 34.5187 79.179 33.5727 78.4603 32.37C77.7416 31.1527 77.3823 29.796 77.3823 28.3C77.3823 26.804 77.7416 25.4547 78.4603 24.252C79.179 23.0347 80.169 22.0887 81.4303 21.414C82.6916 20.7247 84.107 20.38 85.6763 20.38C87.2456 20.38 88.661 20.7247 89.9223 21.414C91.1836 22.0887 92.1736 23.0273 92.8923 24.23C93.611 25.4327 93.9703 26.7893 93.9703 28.3C93.9703 29.8107 93.611 31.1673 92.8923 32.37C92.1736 33.5727 91.1836 34.5187 89.9223 35.208C88.661 35.8827 87.2456 36.22 85.6763 36.22ZM85.6763 33.712C86.703 33.712 87.627 33.4847 88.4483 33.03C89.2696 32.5607 89.915 31.9153 90.3843 31.094C90.8536 30.258 91.0883 29.3267 91.0883 28.3C91.0883 27.2733 90.8536 26.3493 90.3843 25.528C89.915 24.692 89.2696 24.0467 88.4483 23.592C87.627 23.1227 86.703 22.888 85.6763 22.888C84.6496 22.888 83.7256 23.1227 82.9043 23.592C82.083 24.0467 81.4376 24.692 80.9683 25.528C80.499 26.3493 80.2643 27.2733 80.2643 28.3C80.2643 29.3267 80.499 30.258 80.9683 31.094C81.4376 31.9153 82.083 32.5607 82.9043 33.03C83.7256 33.4847 84.6496 33.712 85.6763 33.712Z" fill="black"/>
</svg>
