<svg width="25" height="25" viewBox="0 0 25 25" fill="none" xmlns="http://www.w3.org/2000/svg">
<g clip-path="url(#clip0)">
<path d="M23.0938 11.1484L13.0156 3.60156C12.8594 3.48438 12.6797 3.42969 12.5 3.42969C12.3203 3.42969 12.1328 3.48438 11.9766 3.60156L11.6563 3.84375L1.90625 11.1484C1.52344 11.4375 1.44532 11.9766 1.73438 12.3594C2.02344 12.7422 2.5625 12.8203 2.94532 12.5313L4.51563 11.3516V20.7031C4.51563 21.1797 4.89844 21.5703 5.38282 21.5703H10.3594C10.8359 21.5703 11.2266 21.1875 11.2266 20.7031V16.1094H13.7813V20.7031C13.7813 21.1797 14.1641 21.5703 14.6484 21.5703H19.6328C20.1094 21.5703 20.5 21.1875 20.5 20.7031V11.3516L22.0703 12.5313C22.2266 12.6484 22.4063 12.7031 22.5859 12.7031C22.8516 12.7031 23.1094 12.5859 23.2813 12.3594C23.5547 11.9766 23.4766 11.4375 23.0938 11.1484ZM18.7578 19.8437H15.5V15.25C15.5 14.7734 15.1172 14.3828 14.6328 14.3828H10.3516C9.875 14.3828 9.48438 14.7656 9.48438 15.25V19.8437H6.24219V10.0938L12.5 5.375L18.7578 10.0938V19.8437Z" fill="black"/>
</g>
<defs>
<clipPath id="clip0">
<rect width="25" height="25" fill="white"/>
</clipPath>
</defs>
</svg>
