<svg width="18" height="18" viewBox="0 0 18 18" fill="none" xmlns="http://www.w3.org/2000/svg">
<g clip-path="url(#clip0)">
<path d="M8.98246 0.0184631C6.11905 0.0184631 3.78949 2.34806 3.78949 5.21143C3.78949 6.98503 4.68348 8.55356 6.04431 9.49079C4.7738 9.92922 3.60928 10.6534 2.63095 11.6318C0.934348 13.3284 0 15.5841 0 17.9834H1.40351C1.40351 13.8043 4.8034 10.4044 8.98246 10.4044C11.8459 10.4044 14.1754 8.07484 14.1754 5.21143C14.1754 2.34802 11.8459 0.0184631 8.98246 0.0184631ZM8.98246 9.00092C6.89295 9.00092 5.193 7.30098 5.193 5.21147C5.193 3.12195 6.89295 1.42197 8.98246 1.42197C11.072 1.42197 12.7719 3.12192 12.7719 5.21147C12.7719 7.30101 11.072 9.00092 8.98246 9.00092Z" fill="black"/>
<path d="M15.0526 13.6316V10.6842H13.6491V13.6316H10.7017V15.0351H13.6491V17.9825H15.0526V15.0351H17.9999V13.6316H15.0526Z" fill="black"/>
</g>
<defs>
<clipPath id="clip0">
<rect width="18" height="18" fill="white"/>
</clipPath>
</defs>
</svg>
