<svg width="18" height="18" viewBox="0 0 18 18" fill="none" xmlns="http://www.w3.org/2000/svg">
<path d="M15.364 2.63602C13.6641 0.936176 11.404 0 9 0C6.59602 0 4.33593 0.936176 2.63602 2.63602C0.936176 4.33593 0 6.59602 0 9C0 11.404 0.936176 13.6641 2.63602 15.364C4.33593 17.0638 6.59602 18 9 18C11.404 18 13.6641 17.0638 15.364 15.364C17.0638 13.6641 18 11.404 18 9C18 6.59602 17.0638 4.33593 15.364 2.63602ZM9 16.9453C4.61893 16.9453 1.05469 13.3811 1.05469 9C1.05469 4.61893 4.61893 1.05469 9 1.05469C13.3811 1.05469 16.9453 4.61893 16.9453 9C16.9453 13.3811 13.3811 16.9453 9 16.9453Z" fill="black"/>
<path d="M7.19995 10.8H10.8V2.70001H7.19995V10.8ZM8.39999 3.71888H9.59991V9.78114H8.39999V3.71888Z" fill="black"/>
<path d="M7.41797 15.3457H10.5819V12.1816H7.41797V15.3457ZM8.47266 13.2363H9.52724V14.291H8.47266V13.2363Z" fill="black"/>
</svg>
