<svg width="18" height="18" viewBox="0 0 18 18" fill="none" xmlns="http://www.w3.org/2000/svg">
<g clip-path="url(#clip0)">
<path d="M13.5614 0.00146484H4.43827L0 6.04876L8.98935 18.0005L18 6.04929L13.5614 0.00146484ZM12.8497 1.40659L15.7372 5.34103H12.4768L11.1193 1.40659H12.8497ZM8.24815 1.40659H9.63288L10.9904 5.34103H6.94238L8.24815 1.40659ZM5.14997 1.40659H6.76758L5.46187 5.34103H2.26241L5.14997 1.40659ZM2.28287 6.74619H5.43611L7.30635 13.4251L2.28287 6.74619ZM8.98608 14.2128L6.89527 6.74616H11.0525L8.98608 14.2128ZM10.6522 13.4609L12.5106 6.74619H15.7147L10.6522 13.4609Z" fill="black"/>
</g>
<defs>
<clipPath id="clip0">
<rect width="18" height="18" fill="white"/>
</clipPath>
</defs>
</svg>
